<?xml version="1.0" encoding="UTF-8"?>
<svg id="Layer_2" data-name="Layer 2" xmlns="http://www.w3.org/2000/svg" xmlns:xlink="http://www.w3.org/1999/xlink" viewBox="0 0 337.74 393.31">
  <defs>
    <style>
      .cls-1 {
        fill: url(#linear-gradient);
      }

      .cls-1, .cls-2, .cls-3, .cls-4, .cls-5 {
        stroke-width: 0px;
      }

      .cls-2 {
        fill: #a4c4e4;
      }

      .cls-3 {
        fill: #5694cf;
      }

      .cls-4 {
        fill: url(#linear-gradient-2);
      }

      .cls-5 {
        fill: #0863ba;
      }
    </style>
    <linearGradient id="linear-gradient" x1="117.2" y1="92.34" x2="173.01" y2="298.39" gradientUnits="userSpaceOnUse">
      <stop offset=".3" stop-color="#0863ba"/>
      <stop offset=".69" stop-color="#5694cf"/>
    </linearGradient>
    <linearGradient id="linear-gradient-2" x1="63.56" y1="273.08" x2="60.16" y2="299.2" gradientUnits="userSpaceOnUse">
      <stop offset="0" stop-color="#5694cf"/>
      <stop offset=".68" stop-color="#a4c4e4"/>
    </linearGradient>
  </defs>
  <g id="Layer_1-2" data-name="Layer 1">
    <g>
      <path class="cls-5" d="m322.06,369.99c-6.96,5.15-15.03,7.61-23.01,7.61-12.82,0-25.43-6.35-32.83-18.11l-78.44-124.68-39.05-62.08-47.8-75.98-15.33-40.6c-7.85-20.79,2.07-44.07,22.51-52.81,5.3-2.26,10.83-3.34,16.29-3.34,14.45,0,28.35,7.56,35.97,20.77l172.2,298.76c9.82,17.05,5.3,38.75-10.5,50.46Z"/>
      <path class="cls-1" d="m189.28,293.99l-33.2-51.2-55.14-146.04,47.8,75.98c-1.84-2.91-6.32-.67-5.08,2.56l45.63,118.7Z"/>
      <path class="cls-3" d="m185.86,389.39c-5.59,2.65-11.5,3.92-17.34,3.92-13.78,0-27.13-7.06-34.68-19.55l-61.93-102.47-32.7-54.12h0s-7.83-28.09-7.83-28.09c-5-17.95,3.54-36.92,20.31-45.06,5.41-2.62,11.16-3.88,16.84-3.88,12.72,0,25.06,6.29,32.39,17.59l5.4,8.33,49.76,76.72,33.2,51.2,17.02,44.27c7.6,19.77-1.31,42.05-20.44,51.13Z"/>
      <path class="cls-2" d="m80.71,366.11c-5.52,11.03-15.78,19.61-28.83,22.5-3.09.68-6.18,1.01-9.22,1.01-19.34,0-36.81-13.28-41.37-32.89-.87-3.75-1.29-7.49-1.29-11.19,0-22.04,14.91-42.06,37.18-47.68l22.9-5.79,20.63,74.04Z"/>
      <path class="cls-4" d="m80.71,366.11l-20.63-74.04-20.88-74.9,32.7,54.12c-1.71-2.84-6.08-.97-5.2,2.23l17,62.43c2.86,10.52,1.52,21.16-2.99,30.16Z"/>
    </g>
  </g>
</svg>